<svg width="37" height="33" viewBox="0 0 37 33" fill="none" xmlns="http://www.w3.org/2000/svg">
<path d="M10.5469 32.6533C11.6761 32.6533 12.5914 31.6753 12.5914 30.4688C12.5914 29.2623 11.6761 28.2843 10.5469 28.2843C9.41779 28.2843 8.50244 29.2623 8.50244 30.4688C8.50244 31.6753 9.41779 32.6533 10.5469 32.6533Z" fill="#3985C6"/>
<path d="M23.836 32.6533C24.9651 32.6533 25.8805 31.6753 25.8805 30.4688C25.8805 29.2623 24.9651 28.2843 23.836 28.2843C22.7069 28.2843 21.7915 29.2623 21.7915 30.4688C21.7915 31.6753 22.7069 32.6533 23.836 32.6533Z" fill="#3985C6"/>
<path d="M5.72955 10.808H28.6533L25.2799 23.4237C25.1596 23.8815 24.9018 24.2845 24.5463 24.5706C24.1908 24.8568 23.7572 25.0102 23.3121 25.0075H11.0708C10.6257 25.0102 10.1921 24.8568 9.83656 24.5706C9.48105 24.2845 9.22331 23.8815 9.10295 23.4237L4.4773 6.13856C4.41617 5.91021 4.28706 5.70938 4.10951 5.56648C3.93197 5.42358 3.71567 5.34641 3.49339 5.34667H1.34668" stroke="#3985C6" stroke-width="1.5" stroke-linecap="round" stroke-linejoin="round"/>
<path d="M28.6533 10.808H5.72949L5.99994 11.5L9.10289 23.4237C9.22325 23.8815 9.481 24.2845 9.83651 24.5706C10.192 24.8568 10.6256 25.0102 11.0707 25.0075H23.3121C23.7572 25.0102 24.1908 24.8568 24.5463 24.5706C24.9018 24.2845 25.1595 23.8815 25.2799 23.4237L28.6533 10.808Z" fill="#3985C6" stroke="#3985C6" stroke-width="1.5" stroke-linecap="round" stroke-linejoin="round"/>
<circle cx="28" cy="9" r="8" fill="#3985C6" stroke="white" stroke-width="2"/>
<g clip-path="url(#clip0_333_5)">
<path d="M25.6666 9L27.3333 10.6667L30.6666 7.33334" stroke="white" stroke-width="1.5" stroke-linecap="round" stroke-linejoin="round"/>
</g>
<defs>
<clipPath id="clip0_333_5">
<rect width="8" height="8" fill="white" transform="translate(24 5)"/>
</clipPath>
</defs>
</svg>
